<?xml version="1.0" encoding="UTF-8"?>
<svg xmlns="http://www.w3.org/2000/svg" xmlns:xlink="http://www.w3.org/1999/xlink"
     width="700.0" height="350.0" viewBox="-350.0 -175.0 700.0 350.0" fill="black">
<defs>
</defs>
<circle cx="0" cy="50" r="110.0" fill="rgb(200,3.419276148943652,50)" />
<circle cx="0" cy="50" r="104.5" fill="rgb(200,11.999983967281679,50)" />
<circle cx="0" cy="50" r="99.0" fill="rgb(200,31.17732220795449,50)" />
<circle cx="0" cy="50" r="93.5" fill="rgb(200,43.03488632382448,50)" />
<circle cx="0" cy="50" r="88.0" fill="rgb(200,59.21497249340595,50)" />
<circle cx="0" cy="50" r="82.5" fill="rgb(200,69.10315947538444,50)" />
<circle cx="0" cy="50" r="77.0" fill="rgb(200,78.7595339122901,50)" />
<circle cx="0" cy="50" r="71.5" fill="rgb(200,85.34467403210566,50)" />
<circle cx="0" cy="50" r="66.0" fill="rgb(200,91.30925551146356,50)" />
<circle cx="0" cy="50" r="60.5" fill="rgb(200,103.82068519544535,50)" />
<circle cx="0" cy="50" r="55.0" fill="rgb(200,112.34576738999431,50)" />
<circle cx="0" cy="50" r="49.5" fill="rgb(200,116.06374169548953,50)" />
<circle cx="0" cy="50" r="44.0" fill="rgb(200,122.83893607034301,50)" />
<circle cx="0" cy="50" r="38.5" fill="rgb(200,129.85130674416408,50)" />
<circle cx="0" cy="50" r="33.0" fill="rgb(200,137.33740460552502,50)" />
<circle cx="0" cy="50" r="27.5" fill="rgb(200,145.80530508996975,50)" />
<circle cx="0" cy="50" r="22.0" fill="rgb(200,156.10398114512142,50)" />
<circle cx="0" cy="50" r="16.5" fill="rgb(200,164.92494146820877,50)" />
<circle cx="0" cy="50" r="11.0" fill="rgb(200,165.49496811020268,50)" />
<circle cx="0" cy="50" r="5.5" fill="rgb(200,170.7230846666812,50)" />
<circle cx="0" cy="50" r="0.0" fill="rgb(200,178.41927614894368,50)" />
</svg>