<?xml version="1.0" encoding="UTF-8"?>
<svg xmlns="http://www.w3.org/2000/svg" xmlns:xlink="http://www.w3.org/1999/xlink"
     width="1100.0" height="550.0" viewBox="-550.0 -275.0 1100.0 550.0" fill="black">
<defs>
</defs>
<circle cx="0" cy="50" r="200" fill="rgb(200,99.66030364323309,50)" />
<circle cx="0" cy="50" r="190" fill="rgb(200,0.0,50)" />
<circle cx="0" cy="50" r="180" fill="rgb(200,68.84178109488107,50)" />
<circle cx="0" cy="50" r="170" fill="rgb(200,28.188871329387936,50)" />
<circle cx="0" cy="50" r="160" fill="rgb(200,87.36358617151986,50)" />
<circle cx="0" cy="50" r="150" fill="rgb(200,89.54376116201296,50)" />
<circle cx="0" cy="50" r="140" fill="rgb(200,118.42842849509083,50)" />
<circle cx="0" cy="50" r="130" fill="rgb(200,124.26472362586084,50)" />
<circle cx="0" cy="50" r="120" fill="rgb(200,62.69223746990683,50)" />
<circle cx="0" cy="50" r="110" fill="rgb(200,100.18345735683974,50)" />
<circle cx="0" cy="50" r="100" fill="rgb(200,145.39385092299727,50)" />
<circle cx="0" cy="50" r="90" fill="rgb(200,116.64098626007193,50)" />
<circle cx="0" cy="50" r="80" fill="rgb(200,114.4103656731477,50)" />
<circle cx="0" cy="50" r="70" fill="rgb(200,109.9550064247238,50)" />
<circle cx="0" cy="50" r="60" fill="rgb(200,100.72124591458885,50)" />
<circle cx="0" cy="50" r="50" fill="rgb(200,83.50297538826145,50)" />
<circle cx="0" cy="50" r="40" fill="rgb(200,97.40075163282233,50)" />
<circle cx="0" cy="50" r="30" fill="rgb(200,175.0,50)" />
<circle cx="0" cy="50" r="20" fill="rgb(200,131.1911063448479,50)" />
<circle cx="0" cy="50" r="10" fill="rgb(200,107.97909585522599,50)" />
</svg>